<?xml version="1.0" standalone="no"?> <!DOCTYPE svg PUBLIC "-//W3C//DTD SVG 20010904//EN" "http://www.w3.org/TR/2001/REC-SVG-20010904/DTD/svg10.dtd"> <svg version="1.0" xmlns="http://www.w3.org/2000/svg" width="600.000000pt" height="473.000000pt" viewBox="0 0 600.000000 473.000000" preserveAspectRatio="xMidYMid meet"> <g transform="translate(0.000000,473.000000) scale(0.100000,-0.100000)" fill="#a31971" stroke="none"> <path d="M3271 4706 c-30 -8 -90 -32 -134 -55 -46 -24 -92 -41 -112 -41 -18 0 -101 14 -183 30 -192 38 -401 42 -527 10 -158 -40 -300 -130 -378 -240 l-42 -58 -120 5 c-139 7 -237 -13 -353 -69 -64 -31 -204 -155 -229 -201 -6 -12 -36 -25 -85 -37 -351 -88 -580 -305 -653 -620 -22 -98 -20 -268 6 -371 24 -93 44 -138 99 -219 116 -169 322 -270 551 -270 38 0 69 -3 69 -6 0 -4 -24 -33 -54 -65 -69 -74 -104 -147 -117 -248 -13 -93 -4 -121 39 -121 45 0 54 13 57 79 6 108 29 155 127 255 l88 88 0 57 c0 31 -5 62 -12 69 -8 8 -44 9 -123 5 -136 -7 -234 11 -343 64 -274 134 -370 493 -216 811 36 74 60 108 122 171 65 66 94 86 182 129 58 29 143 61 190 72 119 29 132 36 160 77 77 112 200 192 341 221 67 14 92 14 193 3 64 -7 120 -9 126 -6 6 4 29 32 52 63 97 132 221 214 374 248 105 23 304 15 469 -20 66 -14 149 -25 186 -26 58 0 75 5 160 47 86 44 101 48 180 51 88 4 150 -7 184 -32 19 -14 18 -17 -36 -73 -31 -32 -75 -85 -97 -119 -45 -66 -102 -186 -102 -213 0 -23 31 -51 57 -51 28 0 43 21 92 123 34 71 58 104 124 171 45 45 100 97 122 114 39 30 40 31 25 58 -18 31 -134 104 -206 129 -66 23 -186 28 -253 11z"/> <path d="M3958 4544 c-147 -47 -317 -190 -408 -342 -49 -84 -105 -208 -122 -274 -6 -27 -14 -48 -17 -48 -4 0 -17 21 -31 47 -35 67 -140 175 -217 224 -85 53 -187 99 -223 99 -36 0 -40 -15 -40 -160 0 -192 39 -305 141 -415 69 -73 168 -130 262 -149 l62 -13 11 -104 c10 -90 32 -203 50 -261 5 -16 -2 -18 -56 -18 -76 0 -115 -16 -161 -67 -42 -47 -54 -86 -44 -149 18 -122 166 -175 252 -89 39 39 45 91 14 119 -26 24 -51 17 -71 -19 -31 -56 -90 -39 -90 25 0 62 80 94 153 62 47 -21 67 -46 148 -186 19 -32 63 -89 98 -128 35 -38 61 -71 59 -73 -3 -3 -31 -10 -63 -16 -78 -14 -147 -47 -222 -103 -78 -59 -81 -80 -20 -130 69 -56 157 -105 230 -128 55 -16 87 -19 165 -16 114 5 174 27 264 101 l58 47 107 -39 c157 -56 278 -111 384 -174 86 -50 219 -142 219 -151 0 -2 -48 -3 -107 -3 -89 0 -120 -4 -177 -24 -90 -31 -98 -45 -66 -105 40 -74 130 -174 198 -220 94 -65 173 -87 314 -87 136 0 125 12 134 -142 22 -372 -182 -713 -533 -889 -64 -32 -174 -59 -187 -46 -11 11 2 16 65 25 110 14 179 82 179 176 0 38 4 50 24 62 80 53 88 254 13 316 -12 9 -17 29 -17 63 0 119 -93 217 -206 218 -31 0 -46 6 -65 26 -72 79 -196 84 -283 12 -32 -27 -49 -33 -91 -34 -28 -1 -65 -9 -81 -17 -68 -35 -114 -112 -114 -190 0 -32 -6 -49 -21 -63 -38 -34 -59 -89 -59 -155 0 -67 17 -114 56 -150 19 -18 24 -32 24 -71 0 -117 82 -198 201 -198 34 0 69 -22 52 -33 -13 -8 -120 12 -186 34 -116 39 -213 115 -280 221 -68 105 -89 181 -112 393 -18 173 -54 322 -100 422 l-35 76 20 71 c26 90 36 223 21 301 -16 89 -83 214 -157 293 -75 81 -82 80 -137 -28 -40 -81 -71 -202 -65 -263 2 -20 0 -37 -4 -37 -4 0 -36 13 -71 29 -91 42 -161 61 -249 68 -82 6 -182 -8 -232 -34 -24 -13 -39 -13 -80 -4 -66 14 -119 2 -160 -37 -20 -20 -46 -32 -76 -37 -94 -14 -150 -78 -150 -170 0 -35 -6 -54 -24 -76 -45 -53 -44 -151 3 -211 10 -13 20 -47 23 -76 8 -88 67 -142 154 -142 27 0 47 -6 55 -17 20 -24 89 -53 127 -53 39 0 97 25 115 50 8 11 31 19 65 22 87 8 136 60 148 154 4 27 15 58 25 69 52 59 50 178 -4 224 -12 9 -17 29 -17 65 0 63 -26 110 -75 133 -19 9 -35 20 -35 25 0 12 96 9 182 -6 126 -23 240 -85 348 -188 108 -104 164 -188 205 -308 35 -103 32 -111 -17 -63 -100 97 -255 138 -416 109 -89 -16 -132 -36 -132 -63 0 -32 87 -177 140 -234 107 -114 234 -164 404 -157 l89 3 18 -88 c45 -225 152 -387 321 -490 60 -36 181 -79 261 -92 l37 -6 0 -69 c0 -101 -4 -103 -217 -98 -160 3 -171 5 -219 30 -57 30 -76 52 -184 212 -126 186 -280 331 -437 410 -93 47 -196 75 -479 131 -325 65 -443 99 -548 161 -254 149 -353 423 -236 654 65 130 156 208 366 311 77 39 167 92 198 118 100 81 172 212 183 331 4 38 13 63 29 80 31 33 54 91 54 135 0 38 -22 99 -44 125 -8 8 -16 42 -18 74 l-3 59 64 13 c225 47 362 203 401 458 16 106 7 120 -68 111 -66 -8 -171 -39 -224 -66 -21 -11 -61 -40 -90 -65 l-52 -47 -12 41 c-6 23 -23 61 -38 86 -32 55 -134 156 -158 156 -21 0 -39 -33 -67 -125 -43 -138 -38 -264 15 -384 30 -68 30 -71 -3 -38 -73 69 -185 74 -254 11 -17 -16 -37 -24 -61 -24 -94 0 -178 -80 -178 -169 0 -18 -12 -39 -34 -60 -63 -61 -73 -179 -21 -247 18 -23 25 -45 25 -76 0 -66 36 -128 90 -155 24 -13 60 -23 80 -23 27 0 43 -8 65 -30 36 -37 84 -60 127 -60 40 0 106 30 132 59 20 22 76 30 76 10 0 -6 -24 -34 -52 -63 -39 -38 -90 -71 -193 -124 -186 -95 -250 -138 -328 -222 -73 -77 -137 -195 -156 -288 -16 -75 -14 -198 4 -266 24 -90 83 -193 155 -270 152 -161 301 -223 725 -301 300 -55 434 -97 557 -177 126 -81 205 -167 348 -373 93 -135 124 -167 196 -201 77 -37 152 -46 324 -42 135 3 160 7 196 25 55 29 76 76 82 179 l4 82 137 5 c92 3 162 12 216 26 369 98 647 405 721 798 21 110 15 354 -11 451 l-17 62 59 64 c84 89 114 166 121 307 6 134 -13 222 -71 339 -57 115 -67 116 -166 13 -96 -99 -137 -179 -153 -297 -6 -47 -15 -83 -20 -80 -19 12 -91 119 -123 182 -38 74 -65 167 -65 221 0 45 34 114 64 131 47 25 93 13 117 -32 14 -25 -5 -56 -39 -64 -39 -10 -52 -23 -52 -53 0 -36 17 -51 57 -51 105 0 170 111 125 211 -23 53 -48 76 -99 95 -57 20 -94 17 -154 -13 -40 -21 -61 -40 -84 -77 -28 -46 -30 -56 -30 -145 0 -66 6 -113 18 -150 10 -29 16 -55 13 -58 -3 -4 -83 33 -115 53 -1 2 -3 60 -2 131 1 88 -3 147 -14 187 -32 123 -115 240 -228 320 -87 62 -132 82 -150 68 -22 -19 -49 -164 -50 -270 0 -93 13 -153 58 -256 7 -16 5 -17 -16 -11 -58 17 -199 89 -277 142 -94 63 -212 172 -212 197 0 8 13 22 28 30 41 21 117 106 147 166 33 65 55 164 55 251 0 78 -26 237 -42 257 -16 19 -50 8 -127 -42 -92 -60 -165 -141 -208 -232 l-37 -77 -12 35 c-23 68 -45 229 -45 334 1 362 159 696 396 839 188 113 417 97 563 -40 65 -60 96 -129 96 -213 0 -34 -6 -68 -12 -74 -9 -9 -12 -4 -12 22 0 58 -35 116 -86 140 -27 14 -57 20 -74 18 -23 -4 -33 1 -46 20 -46 69 -176 68 -232 -3 -14 -17 -30 -25 -51 -25 -79 0 -140 -56 -149 -138 -3 -32 -14 -57 -33 -79 -51 -59 -51 -148 0 -206 21 -23 30 -46 33 -83 8 -83 60 -134 137 -134 34 0 47 -6 81 -40 37 -37 44 -40 95 -40 61 0 97 14 134 54 18 19 35 26 60 26 76 0 141 69 141 149 0 27 6 52 16 62 16 18 47 97 86 215 22 69 16 67 113 37 186 -58 378 -207 487 -378 58 -92 76 -136 96 -231 l17 -79 65 -35 c100 -54 189 -148 237 -250 23 -47 47 -110 54 -140 20 -82 17 -240 -5 -343 -17 -78 -18 -99 -8 -176 29 -213 2 -385 -87 -556 -45 -89 -162 -207 -248 -253 -67 -35 -79 -54 -63 -96 16 -42 37 -43 114 -3 144 75 227 159 305 307 68 130 92 231 98 410 3 85 0 182 -5 214 -7 44 -6 73 5 115 7 31 16 115 20 188 5 114 3 144 -16 228 -43 183 -137 323 -283 421 -40 27 -74 49 -76 50 -2 1 -10 29 -18 63 -42 181 -178 372 -359 506 -127 94 -214 135 -352 169 -70 17 -71 18 -77 54 -21 137 -175 282 -346 327 -90 24 -250 19 -342 -11z m271 -343 c8 -5 22 -24 31 -43 16 -35 22 -36 91 -23 30 6 41 3 59 -15 20 -20 22 -29 16 -81 -7 -56 -6 -60 17 -68 35 -14 57 -39 57 -67 0 -23 -5 -30 -59 -71 -22 -18 -23 -20 -7 -56 29 -69 -19 -128 -89 -108 -48 13 -58 8 -79 -38 -30 -69 -99 -61 -131 15 -13 31 -19 35 -37 30 -69 -20 -86 -19 -113 8 -22 22 -26 33 -20 54 14 56 11 86 -11 97 -43 21 -55 38 -52 69 2 22 12 37 35 51 40 25 45 37 32 74 -8 23 -7 36 5 59 19 37 44 46 102 37 42 -6 43 -6 63 34 25 49 56 63 90 42z m-1154 -116 c120 -67 216 -174 254 -285 25 -73 35 -120 24 -120 -4 0 -33 33 -63 72 -79 104 -169 208 -181 208 -20 0 -21 -34 -2 -74 11 -22 53 -85 93 -139 40 -54 70 -100 68 -102 -10 -11 -107 48 -152 92 -52 52 -69 79 -96 158 -24 69 -37 225 -20 225 7 0 41 -16 75 -35z m-677 -576 c18 -30 37 -72 43 -94 13 -48 14 -134 1 -147 -10 -10 -15 0 -27 59 -6 32 -30 61 -41 50 -8 -8 -8 -42 0 -112 l7 -60 -20 23 c-18 21 -51 137 -51 182 0 45 32 161 43 157 7 -2 27 -28 45 -58z m462 -27 c0 -78 -73 -212 -142 -263 -48 -35 -127 -73 -135 -65 -3 2 34 49 81 102 47 54 86 103 86 110 0 24 -30 22 -62 -3 -18 -15 -63 -59 -100 -97 -57 -60 -67 -67 -68 -48 0 62 108 195 195 240 44 22 117 49 138 51 4 1 7 -12 7 -27z m1006 -182 c7 -81 -6 -165 -36 -236 -20 -46 -87 -127 -100 -119 -4 3 5 49 21 102 34 118 37 153 10 153 -21 0 -38 -36 -81 -170 -15 -47 -31 -85 -36 -85 -16 0 -15 124 1 187 8 33 32 86 53 116 41 62 140 148 153 135 5 -5 12 -42 15 -83z m-1662 -214 c41 -43 42 -43 97 -38 53 4 57 3 83 -29 26 -30 28 -38 22 -90 -7 -56 -6 -59 23 -80 35 -26 50 -77 32 -115 -6 -14 -27 -34 -46 -45 -34 -20 -35 -23 -35 -79 0 -53 -3 -61 -32 -85 -29 -24 -36 -26 -89 -20 -56 7 -58 6 -73 -23 -18 -35 -65 -57 -102 -48 -23 6 -39 20 -87 77 -13 14 -22 16 -48 9 -39 -11 -92 8 -109 41 -8 14 -10 43 -7 77 6 52 4 56 -29 87 -27 26 -34 40 -34 70 0 33 7 45 45 81 42 39 45 45 45 92 0 43 5 55 28 77 25 24 32 26 84 20 57 -6 58 -5 89 30 25 28 38 35 67 35 29 0 43 -8 76 -44z m2179 -278 c75 -75 117 -146 136 -229 12 -52 14 -139 4 -139 -5 0 -35 59 -67 131 -58 128 -76 153 -98 131 -14 -14 22 -133 68 -224 18 -37 30 -69 25 -72 -17 -11 -108 91 -142 159 -32 66 -34 75 -34 175 0 107 6 140 25 140 6 0 43 -33 83 -72z m-478 -318 l50 -24 -119 -7 c-118 -8 -151 -18 -129 -40 16 -16 166 -30 231 -23 70 8 68 -9 -5 -44 -48 -22 -72 -26 -138 -26 -69 0 -90 5 -149 32 -71 33 -126 68 -126 81 0 10 54 40 113 62 74 27 203 22 272 -11z m1364 -172 c34 -88 44 -144 39 -237 -3 -75 -9 -99 -37 -155 -18 -36 -39 -66 -47 -66 -10 0 -13 7 -9 23 11 46 23 203 18 230 -5 28 -27 46 -40 33 -11 -10 -32 -149 -32 -213 -1 -34 -5 -64 -10 -68 -24 -14 -55 110 -54 217 0 64 5 87 31 141 28 60 94 147 112 147 4 0 17 -24 29 -52z m-2005 -161 c46 -67 73 -137 82 -215 7 -62 -1 -132 -14 -132 -5 0 -20 50 -35 111 -29 121 -41 146 -63 128 -19 -16 -17 -62 7 -158 11 -45 18 -85 15 -89 -9 -8 -34 26 -63 88 -32 68 -36 167 -8 250 29 89 30 89 79 17z m-832 -234 c8 -10 22 -31 30 -48 14 -31 14 -31 99 -19 31 5 39 2 58 -21 24 -31 27 -62 9 -100 -10 -23 -8 -28 25 -59 50 -46 50 -83 1 -124 -35 -29 -36 -31 -29 -84 7 -52 5 -56 -22 -77 -22 -18 -35 -21 -63 -16 -69 13 -74 12 -92 -27 -30 -63 -107 -62 -131 2 -12 32 -35 38 -81 20 -62 -23 -112 38 -92 112 10 36 9 42 -8 52 -38 21 -66 55 -66 80 0 23 41 68 72 78 11 4 11 14 0 52 -10 39 -10 53 0 74 19 38 61 56 100 43 48 -17 65 -14 72 14 15 58 85 86 118 48z m2401 -18 c32 -8 76 -24 98 -35 44 -23 128 -102 113 -107 -5 -2 -50 13 -99 32 -50 20 -110 39 -134 42 -38 5 -43 4 -39 -13 3 -19 69 -57 186 -107 77 -33 74 -51 -6 -42 -87 10 -146 32 -209 79 -51 38 -123 119 -127 143 -3 23 138 29 217 8z m-1658 -533 c70 -33 173 -132 138 -132 -4 0 -43 15 -88 34 -44 19 -97 38 -117 41 -33 6 -38 5 -38 -12 0 -14 17 -29 53 -48 109 -58 177 -99 177 -108 0 -6 -28 -8 -64 -5 -80 7 -159 42 -222 100 -48 44 -104 122 -104 144 0 35 181 25 265 -14z m1164 -57 c16 -14 33 -34 36 -45 8 -26 31 -32 76 -20 94 26 167 -66 129 -165 -9 -23 -5 -30 38 -70 43 -40 47 -48 47 -91 0 -43 -3 -50 -49 -89 -48 -43 -48 -44 -42 -89 5 -33 3 -55 -9 -80 -22 -45 -58 -60 -128 -51 -55 7 -56 7 -72 -24 -18 -36 -69 -71 -103 -71 -37 0 -77 26 -97 64 -23 43 -33 48 -78 35 -53 -14 -106 7 -129 52 -16 31 -17 43 -8 85 l11 49 -41 35 c-71 61 -70 132 1 193 39 34 40 35 33 86 -13 101 30 147 130 138 l60 -5 41 44 c36 38 47 44 82 44 30 0 50 -7 72 -25z"/> <path d="M4176 4104 c-3 -9 -6 -24 -6 -35 0 -28 -46 -44 -84 -30 -16 6 -33 8 -37 5 -14 -8 -10 -36 8 -56 23 -26 4 -68 -32 -68 -22 0 -26 -4 -23 -22 2 -17 11 -24 30 -26 36 -4 48 -44 23 -72 -19 -21 -14 -50 7 -50 8 0 23 7 35 15 27 19 73 2 73 -27 0 -27 18 -58 34 -58 16 0 26 22 26 56 0 34 43 51 77 29 13 -9 28 -13 33 -10 13 8 13 42 0 50 -14 9 -12 55 3 59 6 3 24 7 40 10 18 4 27 13 27 26 0 16 -7 20 -35 20 -29 0 -36 4 -41 26 -4 17 -1 36 9 53 23 39 8 58 -31 42 -16 -7 -40 -9 -54 -6 -20 5 -27 15 -32 46 -5 29 -11 39 -25 39 -10 0 -22 -7 -25 -16z m64 -154 c39 -39 15 -110 -38 -110 -36 0 -62 27 -62 66 0 56 61 83 100 44z"/> <path d="M2060 2933 c-29 -10 -80 -67 -91 -101 -23 -70 9 -155 71 -187 44 -23 127 -19 166 7 93 64 90 201 -6 265 -32 22 -101 30 -140 16z m89 -88 c48 -24 55 -72 16 -110 -30 -31 -62 -32 -92 -3 -45 42 -20 114 45 127 2 1 16 -6 31 -14z"/> <path d="M2367 1834 c-4 -4 -7 -18 -7 -31 0 -15 -10 -30 -31 -42 -29 -18 -33 -18 -60 -3 -23 14 -31 14 -41 4 -10 -10 -9 -19 6 -46 21 -39 14 -76 -14 -76 -31 0 -50 -11 -50 -31 0 -13 10 -20 36 -25 49 -9 62 -44 33 -84 -34 -45 0 -69 49 -34 29 20 60 9 68 -24 10 -48 14 -54 31 -50 12 2 19 14 21 36 4 44 44 61 84 38 27 -17 58 -12 58 8 0 6 -7 22 -16 34 -24 34 -14 65 23 77 18 6 35 14 39 18 11 10 -16 37 -37 37 -30 0 -45 43 -25 71 34 49 15 72 -38 48 -40 -18 -84 4 -88 44 -3 30 -25 47 -41 31z m57 -165 c50 -39 25 -119 -37 -119 -66 0 -93 78 -41 119 15 12 32 21 39 21 7 0 24 -9 39 -21z"/> <path d="M4220 1108 c-52 -15 -86 -43 -109 -91 -36 -74 -26 -151 28 -207 86 -90 230 -68 288 44 20 39 20 123 0 163 -22 41 -69 80 -115 93 -43 12 -46 11 -92 -2z m83 -100 c54 -28 64 -93 21 -133 -44 -41 -101 -30 -129 25 -19 37 -11 74 22 100 29 23 55 25 86 8z"/> <path d="M1737 3909 c-81 -19 -159 -79 -189 -145 -13 -28 -15 -28 -48 -9 -53 30 -164 14 -199 -29 -10 -11 -31 -16 -73 -16 -104 0 -176 -62 -193 -165 -4 -28 -17 -51 -42 -75 -20 -19 -42 -49 -49 -67 -29 -68 -8 -193 39 -232 11 -9 17 -29 17 -58 0 -108 69 -187 175 -197 35 -4 51 -11 67 -32 29 -36 76 -54 143 -54 59 0 98 15 129 49 13 14 31 21 58 21 49 0 123 35 147 69 22 31 41 86 41 116 0 12 14 34 31 51 41 38 59 82 59 144 0 49 -27 121 -50 135 -6 4 -7 22 -4 45 8 46 -9 100 -43 140 l-25 30 41 46 c43 49 71 121 71 184 0 59 -21 68 -103 49z m23 -94 c0 -19 -44 -87 -70 -109 -32 -27 -76 -43 -87 -32 -13 13 33 88 71 116 35 26 86 41 86 25z m-282 -162 c13 -8 30 -30 38 -49 15 -36 19 -38 76 -35 20 2 50 -5 67 -13 51 -27 63 -67 39 -133 -12 -32 -11 -35 25 -69 30 -29 37 -44 37 -74 0 -42 -35 -94 -70 -105 -17 -5 -20 -16 -20 -65 0 -50 -4 -62 -30 -90 -29 -31 -31 -32 -95 -25 -42 5 -65 4 -65 -3 0 -5 -13 -24 -29 -41 -49 -52 -134 -37 -161 29 -14 34 -32 43 -63 31 -90 -34 -162 61 -122 161 5 12 -4 27 -28 50 -40 38 -57 67 -57 98 0 36 32 81 73 101 35 19 37 22 37 70 0 97 48 139 133 117 l50 -12 26 31 c44 53 85 61 139 26z"/> <path d="M1325 3454 c-72 -37 -101 -91 -93 -176 9 -84 62 -136 149 -144 44 -4 61 -1 94 18 48 28 85 94 85 153 -1 115 -136 201 -235 149z m104 -89 c49 -25 56 -82 15 -120 -33 -30 -63 -32 -98 -4 -35 28 -36 80 -1 114 28 29 45 31 84 10z"/> <path d="M307 3088 c-228 -322 -237 -808 -20 -1135 56 -85 168 -199 248 -253 188 -127 354 -174 670 -189 107 -6 189 -15 220 -25 57 -18 91 -20 100 -6 3 5 7 67 9 137 2 100 8 143 25 196 48 147 188 302 339 373 78 37 90 52 76 93 -14 39 -50 38 -131 -2 -235 -119 -391 -339 -411 -582 -6 -73 -9 -80 -27 -77 -11 2 -101 7 -200 12 -241 12 -357 37 -500 107 -187 93 -335 255 -404 443 -52 142 -70 324 -46 475 13 88 64 247 80 251 6 2 25 -29 43 -69 96 -210 287 -360 500 -393 34 -5 42 -10 38 -23 -3 -9 -14 -42 -26 -74 -16 -45 -20 -77 -18 -135 l3 -77 43 -3 c23 -2 42 0 43 5 0 4 2 42 4 83 3 93 22 145 80 223 46 62 55 87 33 87 -253 5 -442 99 -558 276 -46 71 -93 193 -106 275 -14 90 -46 92 -107 7z"/> </g> </svg>